<svg width="128" height="128" viewBox="0 0 128 128" xmlns="http://www.w3.org/2000/svg">
  <!-- M links -->
  <path fill="#8B5E3C" d="M7.73 85V32.62H24.21L32.69 56.67Q33.22 58.34 33.91 61.02Q34.59 63.7 35.3 66.79Q36.01 69.88 36.62 72.8Q37.24 75.71 37.64 77.87H35.54Q35.95 75.76 36.56 72.86Q37.17 69.96 37.88 66.86Q38.58 63.76 39.27 61.06Q39.95 58.35 40.48 56.67L48.84 32.62H65.36V85H54.59V60.3Q54.59 58.59 54.64 56.03Q54.7 53.47 54.78 50.51Q54.86 47.54 54.93 44.52Q55 41.5 55.02 38.85H55.71Q55.03 41.76 54.22 44.87Q53.4 47.97 52.58 50.9Q51.76 53.82 51.02 56.26Q50.28 58.7 49.75 60.3L41.08 85H32.03L23.22 60.3Q22.69 58.71 21.96 56.3Q21.23 53.89 20.39 50.98Q19.55 48.07 18.71 44.95Q17.88 41.83 17.12 38.85H17.96Q17.99 41.38 18.06 44.37Q18.13 47.36 18.21 50.35Q18.28 53.34 18.34 55.94Q18.41 58.54 18.41 60.3V85Z"/>
  <!-- M rechts -->
  <path fill="#472A1A" d="M64.73 85V32.62H81.21L89.69 56.67Q90.22 58.34 90.91 61.02Q91.59 63.7 92.3 66.79Q93.01 69.88 93.62 72.8Q94.24 75.71 94.64 77.87H92.54Q92.95 75.76 93.56 72.86Q94.17 69.96 94.88 66.86Q95.58 63.76 96.27 61.06Q96.95 58.35 97.48 56.67L105.84 32.62H122.36V85H111.59V60.3Q111.59 58.59 111.64 56.03Q111.7 53.47 111.78 50.51Q111.86 47.54 111.93 44.52Q112 41.5 112.02 38.85H112.71Q112.03 41.76 111.22 44.87Q110.4 47.97 109.58 50.9Q108.76 53.82 108.02 56.26Q107.28 58.7 106.75 60.3L98.08 85H89.03L80.22 60.3Q79.69 58.71 78.96 56.3Q78.23 53.89 77.39 50.98Q76.55 48.07 75.71 44.95Q74.88 41.83 74.12 38.85H74.96Q74.99 41.38 75.06 44.37Q75.13 47.36 75.21 50.35Q75.28 53.34 75.34 55.94Q75.41 58.54 75.41 60.3V85Z"/>
  <!-- J in der Mitte -->
  <path fill="#FF8C3A" d="M63.94 110.7Q55.78 110.7 51.08 106.44Q46.38 102.17 46.38 94.26V91.2H57.12V94.42Q57.12 98.17 58.95 100.11Q60.79 102.04 63.94 102.04Q67.07 102.04 68.89 100.11Q70.7 98.17 70.7 94.38V57.62H81.33V94.23Q81.33 102.15 76.69 106.43Q72.04 110.7 63.94 110.7Z"/>
</svg>
